<mxfile host="app.diagrams.net" agent="Mozilla/5.0 (Windows NT 10.0; Win64; x64) AppleWebKit/537.36 (KHTML, like Gecko) Chrome/127.0.0.0 Safari/537.36" version="24.7.6" pages="5">
  <diagram id="C5RBs43oDa-KdzZeNtuy" name="Assessment">
    <mxGraphModel dx="1050" dy="557" grid="1" gridSize="10" guides="1" tooltips="1" connect="1" arrows="1" fold="1" page="1" pageScale="1" pageWidth="827" pageHeight="1169" math="0" shadow="0">
      <root>
        <mxCell id="WIyWlLk6GJQsqaUBKTNV-0" />
        <mxCell id="WIyWlLk6GJQsqaUBKTNV-1" parent="WIyWlLk6GJQsqaUBKTNV-0" />
        <UserObject label="Audit Planning &amp;amp; Initiation" link="data:page/id,uK43qoGTz_9enEdZ_2Un" id="BG6Rimkldp5BvIk_DR4n-0">
          <mxCell style="ellipse;whiteSpace=wrap;html=1;aspect=fixed;fillColor=#f8cecc;strokeColor=#b85450;" parent="WIyWlLk6GJQsqaUBKTNV-1" vertex="1">
            <mxGeometry x="20" y="201" width="99" height="99" as="geometry" />
          </mxCell>
        </UserObject>
        <UserObject label="Audit Requirement Gathering" link="data:page/id,__LpIdzQSjX-pStpQ8W2" id="BG6Rimkldp5BvIk_DR4n-1">
          <mxCell style="ellipse;whiteSpace=wrap;html=1;aspect=fixed;fillColor=#d5e8d4;strokeColor=#82b366;" parent="WIyWlLk6GJQsqaUBKTNV-1" vertex="1">
            <mxGeometry x="160" y="201" width="99" height="99" as="geometry" />
          </mxCell>
        </UserObject>
        <UserObject label="Stage Gate Findings" link="data:page/id,nSh5L9Dfexr2OT67duSg" id="BG6Rimkldp5BvIk_DR4n-2">
          <mxCell style="ellipse;whiteSpace=wrap;html=1;aspect=fixed;fillColor=#e1d5e7;strokeColor=#9673a6;" parent="WIyWlLk6GJQsqaUBKTNV-1" vertex="1">
            <mxGeometry x="300" y="201" width="99" height="99" as="geometry" />
          </mxCell>
        </UserObject>
        <mxCell id="BG6Rimkldp5BvIk_DR4n-3" value="Audit Execution" style="ellipse;whiteSpace=wrap;html=1;aspect=fixed;fillColor=#b1ddf0;strokeColor=#10739e;" parent="WIyWlLk6GJQsqaUBKTNV-1" vertex="1">
          <mxGeometry x="440" y="201" width="99" height="99" as="geometry" />
        </mxCell>
        <mxCell id="BG6Rimkldp5BvIk_DR4n-4" value="Audit Followup" style="ellipse;whiteSpace=wrap;html=1;aspect=fixed;fillColor=#b0e3e6;strokeColor=#0e8088;" parent="WIyWlLk6GJQsqaUBKTNV-1" vertex="1">
          <mxGeometry x="720" y="201" width="99" height="99" as="geometry" />
        </mxCell>
        <mxCell id="BG6Rimkldp5BvIk_DR4n-5" value="" style="endArrow=classic;html=1;rounded=0;entryX=0;entryY=0.5;entryDx=0;entryDy=0;" parent="WIyWlLk6GJQsqaUBKTNV-1" edge="1">
          <mxGeometry width="50" height="50" relative="1" as="geometry">
            <mxPoint x="121" y="255" as="sourcePoint" />
            <mxPoint x="160" y="255" as="targetPoint" />
          </mxGeometry>
        </mxCell>
        <mxCell id="BG6Rimkldp5BvIk_DR4n-6" value="" style="endArrow=classic;html=1;rounded=0;entryX=0;entryY=0.5;entryDx=0;entryDy=0;" parent="WIyWlLk6GJQsqaUBKTNV-1" edge="1">
          <mxGeometry width="50" height="50" relative="1" as="geometry">
            <mxPoint x="260" y="253" as="sourcePoint" />
            <mxPoint x="299" y="253" as="targetPoint" />
          </mxGeometry>
        </mxCell>
        <mxCell id="BG6Rimkldp5BvIk_DR4n-7" value="" style="endArrow=classic;html=1;rounded=0;entryX=0;entryY=0.5;entryDx=0;entryDy=0;" parent="WIyWlLk6GJQsqaUBKTNV-1" edge="1">
          <mxGeometry width="50" height="50" relative="1" as="geometry">
            <mxPoint x="401" y="251" as="sourcePoint" />
            <mxPoint x="440" y="251" as="targetPoint" />
          </mxGeometry>
        </mxCell>
        <mxCell id="BG6Rimkldp5BvIk_DR4n-8" value="" style="endArrow=classic;html=1;rounded=0;entryX=0;entryY=0.5;entryDx=0;entryDy=0;" parent="WIyWlLk6GJQsqaUBKTNV-1" edge="1">
          <mxGeometry width="50" height="50" relative="1" as="geometry">
            <mxPoint x="541" y="250" as="sourcePoint" />
            <mxPoint x="580" y="250" as="targetPoint" />
          </mxGeometry>
        </mxCell>
        <mxCell id="BG6Rimkldp5BvIk_DR4n-9" value="&lt;b&gt;&lt;font style=&quot;font-size: 19px;&quot;&gt;Internal Audit Workflow&lt;/font&gt;&lt;/b&gt;" style="text;html=1;align=center;verticalAlign=middle;whiteSpace=wrap;rounded=0;" parent="WIyWlLk6GJQsqaUBKTNV-1" vertex="1">
          <mxGeometry x="270" y="76" width="250" height="50" as="geometry" />
        </mxCell>
        <mxCell id="e5m8rFRq-FfhDNariELi-0" value="Audit Reporting" style="ellipse;whiteSpace=wrap;html=1;aspect=fixed;fillColor=#ffcccc;strokeColor=#36393d;" vertex="1" parent="WIyWlLk6GJQsqaUBKTNV-1">
          <mxGeometry x="580" y="201" width="99" height="99" as="geometry" />
        </mxCell>
        <mxCell id="e5m8rFRq-FfhDNariELi-3" value="" style="endArrow=classic;html=1;rounded=0;entryX=0;entryY=0.5;entryDx=0;entryDy=0;" edge="1" parent="WIyWlLk6GJQsqaUBKTNV-1">
          <mxGeometry width="50" height="50" relative="1" as="geometry">
            <mxPoint x="681" y="250" as="sourcePoint" />
            <mxPoint x="720" y="250" as="targetPoint" />
          </mxGeometry>
        </mxCell>
      </root>
    </mxGraphModel>
  </diagram>
  <diagram id="uK43qoGTz_9enEdZ_2Un" name="Initiation">
    <mxGraphModel dx="1050" dy="557" grid="1" gridSize="10" guides="1" tooltips="1" connect="1" arrows="1" fold="1" page="1" pageScale="1" pageWidth="850" pageHeight="1100" math="0" shadow="0">
      <root>
        <mxCell id="0" />
        <mxCell id="1" parent="0" />
        <mxCell id="u7QuY6bMzK2D7-4g_Fdq-1" value="Audit Planning &amp;amp; Initiation" style="text;html=1;align=center;verticalAlign=middle;whiteSpace=wrap;rounded=0;fontSize=15;fontStyle=1" vertex="1" parent="1">
          <mxGeometry x="220" y="41" width="320" height="30" as="geometry" />
        </mxCell>
        <mxCell id="Upt_tr87qgc_qgGBXerm-1" value="&lt;b&gt;&lt;font style=&quot;font-size: 13px;&quot;&gt;Required Documents&lt;/font&gt;&lt;/b&gt;" style="rounded=0;whiteSpace=wrap;html=1;" vertex="1" parent="1">
          <mxGeometry x="40" y="74" width="720" height="576" as="geometry" />
        </mxCell>
        <mxCell id="Upt_tr87qgc_qgGBXerm-2" value="Audit Planning Title" style="rounded=0;whiteSpace=wrap;html=1;" vertex="1" parent="1">
          <mxGeometry x="60" y="100" width="150" height="30" as="geometry" />
        </mxCell>
        <mxCell id="Upt_tr87qgc_qgGBXerm-3" value="Business Unit" style="rounded=0;whiteSpace=wrap;html=1;" vertex="1" parent="1">
          <mxGeometry x="230" y="100" width="160" height="30" as="geometry" />
        </mxCell>
        <mxCell id="Upt_tr87qgc_qgGBXerm-4" value="Department" style="rounded=0;whiteSpace=wrap;html=1;" vertex="1" parent="1">
          <mxGeometry x="403" y="100" width="160" height="30" as="geometry" />
        </mxCell>
        <mxCell id="Upt_tr87qgc_qgGBXerm-5" value="Head Of Audit" style="rounded=0;whiteSpace=wrap;html=1;" vertex="1" parent="1">
          <mxGeometry x="576" y="100" width="160" height="30" as="geometry" />
        </mxCell>
        <mxCell id="Upt_tr87qgc_qgGBXerm-6" value="Audit Manager&lt;span style=&quot;color: rgba(0, 0, 0, 0); font-family: monospace; font-size: 0px; text-align: start; text-wrap: nowrap;&quot;&gt;%3CmxGraphModel%3E%3Croot%3E%3CmxCell%20id%3D%220%22%2F%3E%3CmxCell%20id%3D%221%22%20parent%3D%220%22%2F%3E%3CmxCell%20id%3D%222%22%20value%3D%22Head%20Of%20Audit%22%20style%3D%22rounded%3D0%3BwhiteSpace%3Dwrap%3Bhtml%3D1%3B%22%20vertex%3D%221%22%20parent%3D%221%22%3E%3CmxGeometry%20x%3D%22576%22%20y%3D%22100%22%20width%3D%22160%22%20height%3D%2230%22%20as%3D%22geometry%22%2F%3E%3C%2FmxCell%3E%3C%2Froot%3E%3C%2FmxGraphModel%3E&lt;/span&gt;" style="rounded=0;whiteSpace=wrap;html=1;" vertex="1" parent="1">
          <mxGeometry x="60" y="146" width="150" height="30" as="geometry" />
        </mxCell>
        <mxCell id="Upt_tr87qgc_qgGBXerm-9" value="Audit Scope&lt;span style=&quot;color: rgba(0, 0, 0, 0); font-family: monospace; font-size: 0px; text-align: start; text-wrap: nowrap;&quot;&gt;%3CmxGraphModel%3E%3Croot%3E%3CmxCell%20id%3D%220%22%2F%3E%3CmxCell%20id%3D%221%22%20parent%3D%220%22%2F%3E%3CmxCell%20id%3D%222%22%20value%3D%22Audit%20Manager%26lt%3Bspan%20style%3D%26quot%3Bcolor%3A%20rgba(0%2C%200%2C%200%2C%200)%3B%20font-family%3A%20monospace%3B%20font-size%3A%200px%3B%20text-align%3A%20start%3B%20text-wrap%3A%20nowrap%3B%26quot%3B%26gt%3B%253CmxGraphModel%253E%253Croot%253E%253CmxCell%2520id%253D%25220%2522%252F%253E%253CmxCell%2520id%253D%25221%2522%2520parent%253D%25220%2522%252F%253E%253CmxCell%2520id%253D%25222%2522%2520value%253D%2522Head%2520Of%2520Audit%2522%2520style%253D%2522rounded%253D0%253BwhiteSpace%253Dwrap%253Bhtml%253D1%253B%2522%2520vertex%253D%25221%2522%2520parent%253D%25221%2522%253E%253CmxGeometry%2520x%253D%2522576%2522%2520y%253D%2522100%2522%2520width%253D%2522160%2522%2520height%253D%252230%2522%2520as%253D%2522geometry%2522%252F%253E%253C%252FmxCell%253E%253C%252Froot%253E%253C%252FmxGraphModel%253E%26lt%3B%2Fspan%26gt%3B%22%20style%3D%22rounded%3D0%3BwhiteSpace%3Dwrap%3Bhtml%3D1%3B%22%20vertex%3D%221%22%20parent%3D%221%22%3E%3CmxGeometry%20x%3D%2260%22%20y%3D%22146%22%20width%3D%22150%22%20height%3D%2230%22%20as%3D%22geometry%22%2F%3E%3C%2FmxCell%3E%3C%2Froot%3E%3C%2FmxGraphModel%3E&lt;/span&gt;" style="rounded=0;whiteSpace=wrap;html=1;" vertex="1" parent="1">
          <mxGeometry x="233" y="147" width="237" height="30" as="geometry" />
        </mxCell>
        <mxCell id="Upt_tr87qgc_qgGBXerm-10" value="Audit Procedure" style="rounded=0;whiteSpace=wrap;html=1;" vertex="1" parent="1">
          <mxGeometry x="500" y="147" width="236" height="30" as="geometry" />
        </mxCell>
        <mxCell id="Upt_tr87qgc_qgGBXerm-11" value="Planning Start date" style="rounded=0;whiteSpace=wrap;html=1;" vertex="1" parent="1">
          <mxGeometry x="60" y="200" width="157" height="30" as="geometry" />
        </mxCell>
        <mxCell id="Upt_tr87qgc_qgGBXerm-12" value="Planning End date" style="rounded=0;whiteSpace=wrap;html=1;" vertex="1" parent="1">
          <mxGeometry x="234" y="199" width="157" height="30" as="geometry" />
        </mxCell>
        <mxCell id="Upt_tr87qgc_qgGBXerm-13" value="Document Name" style="rounded=0;whiteSpace=wrap;html=1;" vertex="1" parent="1">
          <mxGeometry x="86" y="400" width="205" height="30" as="geometry" />
        </mxCell>
        <mxCell id="Upt_tr87qgc_qgGBXerm-14" value="Upload Document" style="rounded=0;whiteSpace=wrap;html=1;" vertex="1" parent="1">
          <mxGeometry x="340" y="400" width="205" height="30" as="geometry" />
        </mxCell>
        <mxCell id="Upt_tr87qgc_qgGBXerm-15" value="List Of Documents" style="swimlane;fontStyle=0;childLayout=stackLayout;horizontal=1;startSize=20;fillColor=none;horizontalStack=0;resizeParent=1;resizeParentMax=0;resizeLast=0;collapsible=1;marginBottom=0;html=1;" vertex="1" parent="1">
          <mxGeometry x="86" y="470" width="650" height="98" as="geometry" />
        </mxCell>
        <mxCell id="Upt_tr87qgc_qgGBXerm-16" value="Document 1&amp;nbsp; &amp;nbsp; &amp;nbsp; &amp;nbsp; &amp;nbsp; &amp;nbsp; &amp;nbsp; &amp;nbsp; &amp;nbsp; &amp;nbsp; &amp;nbsp; &amp;nbsp; &amp;nbsp; &amp;nbsp; &amp;nbsp; &amp;nbsp; &amp;nbsp; &amp;nbsp; &amp;nbsp;Approval Required" style="text;strokeColor=none;fillColor=none;align=left;verticalAlign=top;spacingLeft=4;spacingRight=4;overflow=hidden;rotatable=0;points=[[0,0.5],[1,0.5]];portConstraint=eastwest;whiteSpace=wrap;html=1;" vertex="1" parent="Upt_tr87qgc_qgGBXerm-15">
          <mxGeometry y="20" width="650" height="26" as="geometry" />
        </mxCell>
        <mxCell id="Upt_tr87qgc_qgGBXerm-17" value="Document 2&amp;nbsp; &amp;nbsp; &amp;nbsp; &amp;nbsp; &amp;nbsp; &amp;nbsp; &amp;nbsp; &amp;nbsp; &amp;nbsp; &amp;nbsp; &amp;nbsp; &amp;nbsp; &amp;nbsp; &amp;nbsp; &amp;nbsp; &amp;nbsp; &amp;nbsp; &amp;nbsp; &amp;nbsp;Approval Required" style="text;strokeColor=none;fillColor=none;align=left;verticalAlign=top;spacingLeft=4;spacingRight=4;overflow=hidden;rotatable=0;points=[[0,0.5],[1,0.5]];portConstraint=eastwest;whiteSpace=wrap;html=1;" vertex="1" parent="Upt_tr87qgc_qgGBXerm-15">
          <mxGeometry y="46" width="650" height="26" as="geometry" />
        </mxCell>
        <mxCell id="Upt_tr87qgc_qgGBXerm-18" value="Document 3&amp;nbsp; &amp;nbsp; &amp;nbsp; &amp;nbsp; &amp;nbsp; &amp;nbsp; &amp;nbsp; &amp;nbsp; &amp;nbsp; &amp;nbsp; &amp;nbsp; &amp;nbsp; &amp;nbsp; &amp;nbsp; &amp;nbsp; &amp;nbsp; &amp;nbsp; &amp;nbsp; &amp;nbsp;Approval Required" style="text;strokeColor=none;fillColor=none;align=left;verticalAlign=top;spacingLeft=4;spacingRight=4;overflow=hidden;rotatable=0;points=[[0,0.5],[1,0.5]];portConstraint=eastwest;whiteSpace=wrap;html=1;" vertex="1" parent="Upt_tr87qgc_qgGBXerm-15">
          <mxGeometry y="72" width="650" height="26" as="geometry" />
        </mxCell>
        <mxCell id="Upt_tr87qgc_qgGBXerm-20" value="Save and send notification for document Upload" style="rounded=1;whiteSpace=wrap;html=1;fillColor=#dae8fc;gradientColor=#7ea6e0;strokeColor=#6c8ebf;" vertex="1" parent="1">
          <mxGeometry x="440" y="249" width="180" height="31" as="geometry" />
        </mxCell>
        <mxCell id="PSU0vVQinf3GKAvsjEEs-1" value="Required Document" style="rounded=0;whiteSpace=wrap;html=1;" vertex="1" parent="1">
          <mxGeometry x="60" y="240" width="160" height="40" as="geometry" />
        </mxCell>
        <mxCell id="PSU0vVQinf3GKAvsjEEs-2" value="Add More" style="rounded=1;whiteSpace=wrap;html=1;fillColor=#dae8fc;gradientColor=#7ea6e0;strokeColor=#6c8ebf;" vertex="1" parent="1">
          <mxGeometry x="260" y="240" width="120" height="40" as="geometry" />
        </mxCell>
        <mxCell id="PSU0vVQinf3GKAvsjEEs-4" value="Upload" style="rounded=1;whiteSpace=wrap;html=1;fillColor=#dae8fc;gradientColor=#7ea6e0;strokeColor=#6c8ebf;" vertex="1" parent="1">
          <mxGeometry x="590" y="395" width="120" height="40" as="geometry" />
        </mxCell>
      </root>
    </mxGraphModel>
  </diagram>
  <diagram id="__LpIdzQSjX-pStpQ8W2" name="Requirement Gathering">
    <mxGraphModel dx="1050" dy="557" grid="1" gridSize="10" guides="1" tooltips="1" connect="1" arrows="1" fold="1" page="1" pageScale="1" pageWidth="850" pageHeight="1100" math="0" shadow="0">
      <root>
        <mxCell id="0" />
        <mxCell id="1" parent="0" />
        <mxCell id="7ohmYXs3YFXAAWQsKNOj-1" value="Requirement Gathering" style="text;html=1;align=center;verticalAlign=middle;whiteSpace=wrap;rounded=0;fontSize=15;fontStyle=1" vertex="1" parent="1">
          <mxGeometry x="244" y="42" width="326" height="30" as="geometry" />
        </mxCell>
        <mxCell id="7ohmYXs3YFXAAWQsKNOj-2" value="&lt;div&gt;&lt;br&gt;&lt;/div&gt;&lt;div&gt;&lt;br&gt;&lt;/div&gt;&lt;div&gt;&lt;br&gt;&lt;/div&gt;&lt;div&gt;&lt;br&gt;&lt;/div&gt;&lt;div&gt;&lt;br&gt;&lt;/div&gt;&lt;div&gt;&lt;br&gt;&lt;/div&gt;&lt;div&gt;&lt;b&gt;&lt;font style=&quot;font-size: 13px;&quot;&gt;Discussed Agenda&lt;/font&gt;&lt;/b&gt;&lt;/div&gt;&lt;div&gt;&lt;b&gt;&lt;font style=&quot;font-size: 13px;&quot;&gt;&lt;br&gt;&lt;/font&gt;&lt;/b&gt;&lt;/div&gt;" style="rounded=0;whiteSpace=wrap;html=1;" vertex="1" parent="1">
          <mxGeometry x="80" y="80" width="680" height="480" as="geometry" />
        </mxCell>
        <mxCell id="7ohmYXs3YFXAAWQsKNOj-4" value="Name Of Documents" style="rounded=0;whiteSpace=wrap;html=1;" vertex="1" parent="1">
          <mxGeometry x="130" y="110" width="240" height="40" as="geometry" />
        </mxCell>
        <mxCell id="7ohmYXs3YFXAAWQsKNOj-5" value="Upload Documents related To Process" style="rounded=0;whiteSpace=wrap;html=1;" vertex="1" parent="1">
          <mxGeometry x="430" y="110" width="236" height="40" as="geometry" />
        </mxCell>
        <mxCell id="7ohmYXs3YFXAAWQsKNOj-19" value="List" style="swimlane;fontStyle=0;childLayout=stackLayout;horizontal=1;startSize=30;horizontalStack=0;resizeParent=1;resizeParentMax=0;resizeLast=0;collapsible=1;marginBottom=0;whiteSpace=wrap;html=1;" vertex="1" parent="1">
          <mxGeometry x="130" y="170" width="540" height="120" as="geometry" />
        </mxCell>
        <mxCell id="7ohmYXs3YFXAAWQsKNOj-20" value="Document 1&amp;nbsp; &amp;nbsp; &amp;nbsp; &amp;nbsp; &amp;nbsp; &amp;nbsp; &amp;nbsp; &amp;nbsp; &amp;nbsp; &amp;nbsp; &amp;nbsp; &amp;nbsp; &amp;nbsp; &amp;nbsp; &amp;nbsp; Download&amp;nbsp; &amp;nbsp; &amp;nbsp; &amp;nbsp; &amp;nbsp; &amp;nbsp; &amp;nbsp; &amp;nbsp; &amp;nbsp; &amp;nbsp; &amp;nbsp; &amp;nbsp; &amp;nbsp; &amp;nbsp; &amp;nbsp; &amp;nbsp; &amp;nbsp; &amp;nbsp; &amp;nbsp; &amp;nbsp; &amp;nbsp; &amp;nbsp; &amp;nbsp; &amp;nbsp;Approval Flow" style="text;strokeColor=none;fillColor=none;align=left;verticalAlign=middle;spacingLeft=4;spacingRight=4;overflow=hidden;points=[[0,0.5],[1,0.5]];portConstraint=eastwest;rotatable=0;whiteSpace=wrap;html=1;" vertex="1" parent="7ohmYXs3YFXAAWQsKNOj-19">
          <mxGeometry y="30" width="540" height="30" as="geometry" />
        </mxCell>
        <mxCell id="7ohmYXs3YFXAAWQsKNOj-21" value="Document 2&amp;nbsp; &amp;nbsp; &amp;nbsp; &amp;nbsp; &amp;nbsp; &amp;nbsp; &amp;nbsp; &amp;nbsp; &amp;nbsp; &amp;nbsp; &amp;nbsp; &amp;nbsp; &amp;nbsp; &amp;nbsp; &amp;nbsp; Download&amp;nbsp; &amp;nbsp; &amp;nbsp; &amp;nbsp; &amp;nbsp; &amp;nbsp; &amp;nbsp; &amp;nbsp; &amp;nbsp; &amp;nbsp; &amp;nbsp; &amp;nbsp; &amp;nbsp; &amp;nbsp; &amp;nbsp; &amp;nbsp; &amp;nbsp; &amp;nbsp; &amp;nbsp; &amp;nbsp; &amp;nbsp; &amp;nbsp; &amp;nbsp; &amp;nbsp; Approval Flow" style="text;strokeColor=none;fillColor=none;align=left;verticalAlign=middle;spacingLeft=4;spacingRight=4;overflow=hidden;points=[[0,0.5],[1,0.5]];portConstraint=eastwest;rotatable=0;whiteSpace=wrap;html=1;" vertex="1" parent="7ohmYXs3YFXAAWQsKNOj-19">
          <mxGeometry y="60" width="540" height="30" as="geometry" />
        </mxCell>
        <mxCell id="7ohmYXs3YFXAAWQsKNOj-22" value="Document 3&amp;nbsp; &amp;nbsp; &amp;nbsp; &amp;nbsp; &amp;nbsp; &amp;nbsp; &amp;nbsp; &amp;nbsp; &amp;nbsp; &amp;nbsp; &amp;nbsp; &amp;nbsp; &amp;nbsp; &amp;nbsp; &amp;nbsp; &amp;nbsp;Download&amp;nbsp; &amp;nbsp; &amp;nbsp; &amp;nbsp; &amp;nbsp; &amp;nbsp; &amp;nbsp; &amp;nbsp; &amp;nbsp; &amp;nbsp; &amp;nbsp; &amp;nbsp; &amp;nbsp; &amp;nbsp; &amp;nbsp; &amp;nbsp; &amp;nbsp; &amp;nbsp; &amp;nbsp; &amp;nbsp; &amp;nbsp; &amp;nbsp; &amp;nbsp; &amp;nbsp;Approval" style="text;strokeColor=none;fillColor=none;align=left;verticalAlign=middle;spacingLeft=4;spacingRight=4;overflow=hidden;points=[[0,0.5],[1,0.5]];portConstraint=eastwest;rotatable=0;whiteSpace=wrap;html=1;" vertex="1" parent="7ohmYXs3YFXAAWQsKNOj-19">
          <mxGeometry y="90" width="540" height="30" as="geometry" />
        </mxCell>
        <mxCell id="7ohmYXs3YFXAAWQsKNOj-23" value="" style="rounded=0;whiteSpace=wrap;html=1;" vertex="1" parent="1">
          <mxGeometry x="130" y="370" width="550" height="170" as="geometry" />
        </mxCell>
        <mxCell id="7ohmYXs3YFXAAWQsKNOj-24" value="Agenda" style="rounded=0;whiteSpace=wrap;html=1;" vertex="1" parent="1">
          <mxGeometry x="150" y="390" width="230" height="50" as="geometry" />
        </mxCell>
        <mxCell id="7ohmYXs3YFXAAWQsKNOj-25" value="List" style="swimlane;fontStyle=0;childLayout=stackLayout;horizontal=1;startSize=26;fillColor=none;horizontalStack=0;resizeParent=1;resizeParentMax=0;resizeLast=0;collapsible=1;marginBottom=0;html=1;" vertex="1" parent="1">
          <mxGeometry x="430" y="390" width="200" height="104" as="geometry" />
        </mxCell>
        <mxCell id="7ohmYXs3YFXAAWQsKNOj-26" value="Agenda 1" style="text;strokeColor=none;fillColor=none;align=left;verticalAlign=top;spacingLeft=4;spacingRight=4;overflow=hidden;rotatable=0;points=[[0,0.5],[1,0.5]];portConstraint=eastwest;whiteSpace=wrap;html=1;" vertex="1" parent="7ohmYXs3YFXAAWQsKNOj-25">
          <mxGeometry y="26" width="200" height="26" as="geometry" />
        </mxCell>
        <mxCell id="7ohmYXs3YFXAAWQsKNOj-27" value="Agenda 2" style="text;strokeColor=none;fillColor=none;align=left;verticalAlign=top;spacingLeft=4;spacingRight=4;overflow=hidden;rotatable=0;points=[[0,0.5],[1,0.5]];portConstraint=eastwest;whiteSpace=wrap;html=1;" vertex="1" parent="7ohmYXs3YFXAAWQsKNOj-25">
          <mxGeometry y="52" width="200" height="26" as="geometry" />
        </mxCell>
        <mxCell id="7ohmYXs3YFXAAWQsKNOj-28" value="Agenda 3" style="text;strokeColor=none;fillColor=none;align=left;verticalAlign=top;spacingLeft=4;spacingRight=4;overflow=hidden;rotatable=0;points=[[0,0.5],[1,0.5]];portConstraint=eastwest;whiteSpace=wrap;html=1;" vertex="1" parent="7ohmYXs3YFXAAWQsKNOj-25">
          <mxGeometry y="78" width="200" height="26" as="geometry" />
        </mxCell>
      </root>
    </mxGraphModel>
  </diagram>
  <diagram id="nSh5L9Dfexr2OT67duSg" name="Stage Gate Findings">
    <mxGraphModel dx="1050" dy="557" grid="1" gridSize="10" guides="1" tooltips="1" connect="1" arrows="1" fold="1" page="1" pageScale="1" pageWidth="850" pageHeight="1100" math="0" shadow="0">
      <root>
        <mxCell id="0" />
        <mxCell id="1" parent="0" />
        <mxCell id="LVV3OPDkfDLosCwYrZbk-1" value="Stage Gate Findings" style="text;html=1;align=center;verticalAlign=middle;whiteSpace=wrap;rounded=0;fontStyle=1;fontSize=15;" parent="1" vertex="1">
          <mxGeometry x="280" y="41" width="230" height="30" as="geometry" />
        </mxCell>
        <mxCell id="LVV3OPDkfDLosCwYrZbk-3" value="No Of RFI Documents" style="rounded=1;whiteSpace=wrap;html=1;fillColor=#dae8fc;gradientColor=#7ea6e0;strokeColor=#6c8ebf;" parent="1" vertex="1">
          <mxGeometry x="70" y="120" width="150" height="60" as="geometry" />
        </mxCell>
        <mxCell id="LVV3OPDkfDLosCwYrZbk-5" value="Approved Documents" style="rounded=1;whiteSpace=wrap;html=1;fillColor=#d5e8d4;gradientColor=#97d077;strokeColor=#82b366;" parent="1" vertex="1">
          <mxGeometry x="340" y="120" width="140" height="60" as="geometry" />
        </mxCell>
        <mxCell id="LVV3OPDkfDLosCwYrZbk-6" value="Rejected Documents" style="rounded=1;whiteSpace=wrap;html=1;fillColor=#d5e8d4;gradientColor=#97d077;strokeColor=#82b366;" parent="1" vertex="1">
          <mxGeometry x="580" y="120" width="140" height="60" as="geometry" />
        </mxCell>
        <mxCell id="LVV3OPDkfDLosCwYrZbk-7" value="Audit Planning QA Checklist" style="text;html=1;align=center;verticalAlign=middle;resizable=0;points=[];autosize=1;strokeColor=none;fillColor=none;fontStyle=1;fontSize=13;" parent="1" vertex="1">
          <mxGeometry x="308" y="218" width="190" height="30" as="geometry" />
        </mxCell>
        <mxCell id="LVV3OPDkfDLosCwYrZbk-8" value="Questions" style="rounded=0;whiteSpace=wrap;html=1;" parent="1" vertex="1">
          <mxGeometry x="40" y="280" width="180" height="40" as="geometry" />
        </mxCell>
        <mxCell id="LVV3OPDkfDLosCwYrZbk-9" value="Response" style="rounded=0;whiteSpace=wrap;html=1;" parent="1" vertex="1">
          <mxGeometry x="240" y="280" width="200" height="40" as="geometry" />
        </mxCell>
        <mxCell id="LVV3OPDkfDLosCwYrZbk-10" value="Additional Remark" style="rounded=0;whiteSpace=wrap;html=1;" parent="1" vertex="1">
          <mxGeometry x="470" y="280" width="170" height="40" as="geometry" />
        </mxCell>
        <mxCell id="xVjMfzp_f23OVq4gqMer-1" value="Save" style="rounded=1;whiteSpace=wrap;html=1;fillColor=#cce5ff;strokeColor=#36393d;" vertex="1" parent="1">
          <mxGeometry x="670" y="280" width="120" height="40" as="geometry" />
        </mxCell>
        <mxCell id="xVjMfzp_f23OVq4gqMer-2" value="View QA Checklist" style="shape=table;startSize=30;container=1;collapsible=0;childLayout=tableLayout;strokeColor=default;fontSize=16;" vertex="1" parent="1">
          <mxGeometry x="40" y="390" width="750" height="150" as="geometry" />
        </mxCell>
        <mxCell id="xVjMfzp_f23OVq4gqMer-3" value="" style="shape=tableRow;horizontal=0;startSize=0;swimlaneHead=0;swimlaneBody=0;strokeColor=inherit;top=0;left=0;bottom=0;right=0;collapsible=0;dropTarget=0;fillColor=none;points=[[0,0.5],[1,0.5]];portConstraint=eastwest;fontSize=16;" vertex="1" parent="xVjMfzp_f23OVq4gqMer-2">
          <mxGeometry y="30" width="750" height="40" as="geometry" />
        </mxCell>
        <mxCell id="xVjMfzp_f23OVq4gqMer-4" value="Question" style="shape=partialRectangle;html=1;whiteSpace=wrap;connectable=0;strokeColor=inherit;overflow=hidden;fillColor=none;top=0;left=0;bottom=0;right=0;pointerEvents=1;fontSize=16;" vertex="1" parent="xVjMfzp_f23OVq4gqMer-3">
          <mxGeometry width="251" height="40" as="geometry">
            <mxRectangle width="251" height="40" as="alternateBounds" />
          </mxGeometry>
        </mxCell>
        <mxCell id="xVjMfzp_f23OVq4gqMer-5" value="Response" style="shape=partialRectangle;html=1;whiteSpace=wrap;connectable=0;strokeColor=inherit;overflow=hidden;fillColor=none;top=0;left=0;bottom=0;right=0;pointerEvents=1;fontSize=16;" vertex="1" parent="xVjMfzp_f23OVq4gqMer-3">
          <mxGeometry x="251" width="248" height="40" as="geometry">
            <mxRectangle width="248" height="40" as="alternateBounds" />
          </mxGeometry>
        </mxCell>
        <mxCell id="xVjMfzp_f23OVq4gqMer-6" value="Additional Remark" style="shape=partialRectangle;html=1;whiteSpace=wrap;connectable=0;strokeColor=inherit;overflow=hidden;fillColor=none;top=0;left=0;bottom=0;right=0;pointerEvents=1;fontSize=16;" vertex="1" parent="xVjMfzp_f23OVq4gqMer-3">
          <mxGeometry x="499" width="251" height="40" as="geometry">
            <mxRectangle width="251" height="40" as="alternateBounds" />
          </mxGeometry>
        </mxCell>
        <mxCell id="xVjMfzp_f23OVq4gqMer-7" value="" style="shape=tableRow;horizontal=0;startSize=0;swimlaneHead=0;swimlaneBody=0;strokeColor=inherit;top=0;left=0;bottom=0;right=0;collapsible=0;dropTarget=0;fillColor=none;points=[[0,0.5],[1,0.5]];portConstraint=eastwest;fontSize=16;" vertex="1" parent="xVjMfzp_f23OVq4gqMer-2">
          <mxGeometry y="70" width="750" height="40" as="geometry" />
        </mxCell>
        <mxCell id="xVjMfzp_f23OVq4gqMer-8" value="A" style="shape=partialRectangle;html=1;whiteSpace=wrap;connectable=0;strokeColor=inherit;overflow=hidden;fillColor=none;top=0;left=0;bottom=0;right=0;pointerEvents=1;fontSize=16;" vertex="1" parent="xVjMfzp_f23OVq4gqMer-7">
          <mxGeometry width="251" height="40" as="geometry">
            <mxRectangle width="251" height="40" as="alternateBounds" />
          </mxGeometry>
        </mxCell>
        <mxCell id="xVjMfzp_f23OVq4gqMer-9" value="Yes" style="shape=partialRectangle;html=1;whiteSpace=wrap;connectable=0;strokeColor=inherit;overflow=hidden;fillColor=none;top=0;left=0;bottom=0;right=0;pointerEvents=1;fontSize=16;" vertex="1" parent="xVjMfzp_f23OVq4gqMer-7">
          <mxGeometry x="251" width="248" height="40" as="geometry">
            <mxRectangle width="248" height="40" as="alternateBounds" />
          </mxGeometry>
        </mxCell>
        <mxCell id="xVjMfzp_f23OVq4gqMer-10" value="Abc" style="shape=partialRectangle;html=1;whiteSpace=wrap;connectable=0;strokeColor=inherit;overflow=hidden;fillColor=none;top=0;left=0;bottom=0;right=0;pointerEvents=1;fontSize=16;" vertex="1" parent="xVjMfzp_f23OVq4gqMer-7">
          <mxGeometry x="499" width="251" height="40" as="geometry">
            <mxRectangle width="251" height="40" as="alternateBounds" />
          </mxGeometry>
        </mxCell>
        <mxCell id="xVjMfzp_f23OVq4gqMer-11" value="" style="shape=tableRow;horizontal=0;startSize=0;swimlaneHead=0;swimlaneBody=0;strokeColor=inherit;top=0;left=0;bottom=0;right=0;collapsible=0;dropTarget=0;fillColor=none;points=[[0,0.5],[1,0.5]];portConstraint=eastwest;fontSize=16;" vertex="1" parent="xVjMfzp_f23OVq4gqMer-2">
          <mxGeometry y="110" width="750" height="40" as="geometry" />
        </mxCell>
        <mxCell id="xVjMfzp_f23OVq4gqMer-12" value="B" style="shape=partialRectangle;html=1;whiteSpace=wrap;connectable=0;strokeColor=inherit;overflow=hidden;fillColor=none;top=0;left=0;bottom=0;right=0;pointerEvents=1;fontSize=16;" vertex="1" parent="xVjMfzp_f23OVq4gqMer-11">
          <mxGeometry width="251" height="40" as="geometry">
            <mxRectangle width="251" height="40" as="alternateBounds" />
          </mxGeometry>
        </mxCell>
        <mxCell id="xVjMfzp_f23OVq4gqMer-13" value="No" style="shape=partialRectangle;html=1;whiteSpace=wrap;connectable=0;strokeColor=inherit;overflow=hidden;fillColor=none;top=0;left=0;bottom=0;right=0;pointerEvents=1;fontSize=16;" vertex="1" parent="xVjMfzp_f23OVq4gqMer-11">
          <mxGeometry x="251" width="248" height="40" as="geometry">
            <mxRectangle width="248" height="40" as="alternateBounds" />
          </mxGeometry>
        </mxCell>
        <mxCell id="xVjMfzp_f23OVq4gqMer-14" value="bcd" style="shape=partialRectangle;html=1;whiteSpace=wrap;connectable=0;strokeColor=inherit;overflow=hidden;fillColor=none;top=0;left=0;bottom=0;right=0;pointerEvents=1;fontSize=16;" vertex="1" parent="xVjMfzp_f23OVq4gqMer-11">
          <mxGeometry x="499" width="251" height="40" as="geometry">
            <mxRectangle width="251" height="40" as="alternateBounds" />
          </mxGeometry>
        </mxCell>
      </root>
    </mxGraphModel>
  </diagram>
  <diagram id="dDK5mPuf8NA0YzHRFdHn" name="Field Work">
    <mxGraphModel dx="1050" dy="557" grid="1" gridSize="10" guides="1" tooltips="1" connect="1" arrows="1" fold="1" page="1" pageScale="1" pageWidth="850" pageHeight="1100" math="0" shadow="0">
      <root>
        <mxCell id="0" />
        <mxCell id="1" parent="0" />
        <mxCell id="Md40EeYTpQ1VHj4WsEYl-1" value="Test Of Control" style="text;html=1;align=center;verticalAlign=middle;whiteSpace=wrap;rounded=0;fontSize=15;fontStyle=1" vertex="1" parent="1">
          <mxGeometry x="322" y="50" width="128" height="30" as="geometry" />
        </mxCell>
        <mxCell id="Md40EeYTpQ1VHj4WsEYl-2" value="Audit Test Name" style="rounded=0;whiteSpace=wrap;html=1;" vertex="1" parent="1">
          <mxGeometry x="40" y="120" width="160" height="40" as="geometry" />
        </mxCell>
        <mxCell id="Md40EeYTpQ1VHj4WsEYl-3" value="Control Name" style="rounded=0;whiteSpace=wrap;html=1;" vertex="1" parent="1">
          <mxGeometry x="240" y="120" width="160" height="40" as="geometry" />
        </mxCell>
      </root>
    </mxGraphModel>
  </diagram>
</mxfile>
